<svg data-v-423bf9ae="" xmlns="http://www.w3.org/2000/svg" viewBox="0 0 510 90" class="iconLeft"><!----><!----><!----><g data-v-423bf9ae="" id="485a1fe6-1b9b-4034-bd2f-cb7d319e5aab" fill="#000000" transform="matrix(4.1987401088830385,0,0,4.1987401088830385,148.75780682351927,9.12176239794875)"><path d="M8.46 10.99L8.46 10.99Q8.78 10.99 8.97 11.17L8.97 11.17L8.97 11.17Q9.17 11.35 9.17 11.65L9.17 11.65L9.17 11.65Q9.17 11.96 8.97 12.14L8.97 12.14L8.97 12.14Q8.78 12.33 8.46 12.33L8.46 12.33L2.13 12.33L2.13 12.33Q1.82 12.33 1.61 12.12L1.61 12.12L1.61 12.12Q1.40 11.91 1.40 11.61L1.40 11.61L1.40 2.13L1.40 2.13Q1.40 1.81 1.61 1.60L1.61 1.60L1.61 1.60Q1.82 1.40 2.13 1.40L2.13 1.40L8.46 1.40L8.46 1.40Q8.78 1.40 8.97 1.59L8.97 1.59L8.97 1.59Q9.17 1.78 9.17 2.09L9.17 2.09L9.17 2.09Q9.17 2.38 8.97 2.56L8.97 2.56L8.97 2.56Q8.78 2.74 8.46 2.74L8.46 2.74L2.86 2.74L2.86 6.15L6.87 6.15L6.87 6.15Q7.18 6.15 7.38 6.33L7.38 6.33L7.38 6.33Q7.59 6.52 7.59 6.82L7.59 6.82L7.59 6.82Q7.59 7.11 7.38 7.30L7.38 7.30L7.38 7.30Q7.18 7.49 6.87 7.49L6.87 7.49L2.86 7.49L2.86 10.99L8.46 10.99ZM14.87 4.61L14.87 4.61Q15.83 4.61 16.60 5.03L16.60 5.03L16.60 5.03Q17.37 5.45 17.81 6.25L17.81 6.25L17.81 6.25Q18.24 7.06 18.24 8.19L18.24 8.19L18.24 11.63L18.24 11.63Q18.24 11.94 18.04 12.14L18.04 12.14L18.04 12.14Q17.84 12.35 17.53 12.35L17.53 12.35L17.53 12.35Q17.22 12.35 17.02 12.14L17.02 12.14L17.02 12.14Q16.81 11.94 16.81 11.63L16.81 11.63L16.81 8.19L16.81 8.19Q16.81 7.06 16.21 6.47L16.21 6.47L16.21 6.47Q15.60 5.89 14.59 5.89L14.59 5.89L14.59 5.89Q14 5.89 13.52 6.13L13.52 6.13L13.52 6.13Q13.03 6.37 12.76 6.78L12.76 6.78L12.76 6.78Q12.49 7.18 12.49 7.69L12.49 7.69L12.49 11.63L12.49 11.63Q12.49 11.94 12.29 12.14L12.29 12.14L12.29 12.14Q12.10 12.35 11.77 12.35L11.77 12.35L11.77 12.35Q11.47 12.35 11.26 12.14L11.26 12.14L11.26 12.14Q11.06 11.94 11.06 11.63L11.06 11.63L11.06 5.39L11.06 5.39Q11.06 5.07 11.26 4.87L11.26 4.87L11.26 4.87Q11.47 4.68 11.77 4.68L11.77 4.68L11.77 4.68Q12.10 4.68 12.29 4.87L12.29 4.87L12.29 4.87Q12.49 5.07 12.49 5.39L12.49 5.39L12.49 5.54L12.49 5.54Q12.94 5.10 13.55 4.85L13.55 4.85L13.55 4.85Q14.17 4.61 14.87 4.61L14.87 4.61ZM25.69 11.02L25.69 11.02Q26.35 11.02 26.35 11.68L26.35 11.68L26.35 11.68Q26.35 12.33 25.69 12.33L25.69 12.33L20.92 12.33L20.92 12.33Q20.26 12.33 20.26 11.68L20.26 11.68L20.26 11.68Q20.26 11.40 20.38 11.23L20.38 11.23L24.35 5.99L20.78 5.99L20.78 5.99Q20.12 5.99 20.12 5.33L20.12 5.33L20.12 5.33Q20.12 4.68 20.78 4.68L20.78 4.68L25.55 4.68L25.55 4.68Q26.21 4.68 26.21 5.33L26.21 5.33L26.21 5.33Q26.21 5.61 26.08 5.78L26.08 5.78L22.13 11.02L25.69 11.02ZM34.02 4.75L34.02 4.75Q34.45 4.91 34.45 5.29L34.45 5.29L34.45 5.29Q34.45 5.43 34.37 5.63L34.37 5.63L30.09 15.26L30.09 15.26Q29.92 15.69 29.54 15.69L29.54 15.69L29.54 15.69Q29.40 15.69 29.20 15.61L29.20 15.61L29.20 15.61Q28.78 15.43 28.78 15.06L28.78 15.06L28.78 15.06Q28.78 14.90 28.87 14.73L28.87 14.73L30.27 11.58L27.12 5.60L27.12 5.60Q27.05 5.47 27.05 5.31L27.05 5.31L27.05 5.31Q27.05 5.12 27.16 4.97L27.16 4.97L27.16 4.97Q27.27 4.82 27.45 4.73L27.45 4.73L27.45 4.73Q27.58 4.68 27.73 4.68L27.73 4.68L27.73 4.68Q28.13 4.68 28.32 5.07L28.32 5.07L30.88 10.16L33.14 5.08L33.14 5.08Q33.32 4.68 33.68 4.68L33.68 4.68L33.68 4.68Q33.87 4.68 34.02 4.75L34.02 4.75ZM43.76 4.61L43.76 4.61Q44.98 4.61 45.73 5.40L45.73 5.40L45.73 5.40Q46.48 6.20 46.48 7.63L46.48 7.63L46.48 11.63L46.48 11.63Q46.48 11.94 46.28 12.14L46.28 12.14L46.28 12.14Q46.09 12.35 45.77 12.35L45.77 12.35L45.77 12.35Q45.46 12.35 45.26 12.14L45.26 12.14L45.26 12.14Q45.05 11.94 45.05 11.63L45.05 11.63L45.05 7.63L45.05 7.63Q45.05 6.78 44.63 6.33L44.63 6.33L44.63 6.33Q44.20 5.89 43.48 5.89L43.48 5.89L43.48 5.89Q42.76 5.89 42.29 6.40L42.29 6.40L42.29 6.40Q41.82 6.90 41.82 7.69L41.82 7.69L41.82 11.63L41.82 11.63Q41.82 11.94 41.62 12.14L41.62 12.14L41.62 12.14Q41.43 12.35 41.10 12.35L41.10 12.35L41.10 12.35Q40.80 12.35 40.59 12.14L40.59 12.14L40.59 12.14Q40.39 11.94 40.39 11.63L40.39 11.63L40.39 7.63L40.39 7.63Q40.39 6.78 39.96 6.33L39.96 6.33L39.96 6.33Q39.54 5.89 38.82 5.89L38.82 5.89L38.82 5.89Q38.08 5.89 37.61 6.40L37.61 6.40L37.61 6.40Q37.14 6.90 37.14 7.69L37.14 7.69L37.14 11.63L37.14 11.63Q37.14 11.94 36.95 12.14L36.95 12.14L36.95 12.14Q36.75 12.35 36.43 12.35L36.43 12.35L36.43 12.35Q36.12 12.35 35.92 12.14L35.92 12.14L35.92 12.14Q35.71 11.94 35.71 11.63L35.71 11.63L35.71 5.40L35.71 5.40Q35.71 5.08 35.92 4.89L35.92 4.89L35.92 4.89Q36.12 4.69 36.43 4.69L36.43 4.69L36.43 4.69Q36.74 4.69 36.93 4.88L36.93 4.88L36.93 4.88Q37.13 5.07 37.14 5.38L37.14 5.38L37.14 5.38Q37.51 5.01 38.01 4.81L38.01 4.81L38.01 4.81Q38.51 4.61 39.10 4.61L39.10 4.61L39.10 4.61Q39.82 4.61 40.38 4.89L40.38 4.89L40.38 4.89Q40.95 5.18 41.31 5.71L41.31 5.71L41.31 5.71Q41.73 5.19 42.36 4.90L42.36 4.90L42.36 4.90Q42.99 4.61 43.76 4.61L43.76 4.61ZM48.99 5.39L48.99 5.39Q48.99 5.07 49.19 4.87L49.19 4.87L49.19 4.87Q49.39 4.68 49.70 4.68L49.70 4.68L49.70 4.68Q50.02 4.68 50.22 4.87L50.22 4.87L50.22 4.87Q50.41 5.07 50.41 5.39L50.41 5.39L50.41 11.62L50.41 11.62Q50.41 11.93 50.22 12.13L50.22 12.13L50.22 12.13Q50.02 12.33 49.70 12.33L49.70 12.33L49.70 12.33Q49.39 12.33 49.19 12.13L49.19 12.13L49.19 12.13Q48.99 11.93 48.99 11.62L48.99 11.62L48.99 5.39ZM49.70 1.58L49.70 1.58Q50.08 1.58 50.35 1.85L50.35 1.85L50.35 1.85Q50.62 2.13 50.62 2.51L50.62 2.51L50.62 2.51Q50.62 2.88 50.35 3.16L50.35 3.16L50.35 3.16Q50.08 3.43 49.70 3.43L49.70 3.43L49.70 3.43Q49.32 3.43 49.05 3.16L49.05 3.16L49.05 3.16Q48.78 2.88 48.78 2.51L48.78 2.51L48.78 2.51Q48.78 2.13 49.05 1.85L49.05 1.85L49.05 1.85Q49.32 1.58 49.70 1.58L49.70 1.58ZM56.48 4.62L56.48 4.62Q58.13 4.62 59.22 5.88L59.22 5.88L59.22 5.88Q59.36 6.03 59.36 6.24L59.36 6.24L59.36 6.24Q59.36 6.55 59.05 6.76L59.05 6.76L59.05 6.76Q58.91 6.86 58.73 6.86L58.73 6.86L58.73 6.86Q58.41 6.86 58.18 6.61L58.18 6.61L58.18 6.61Q57.83 6.23 57.42 6.05L57.42 6.05L57.42 6.05Q57.01 5.88 56.48 5.88L56.48 5.88L56.48 5.88Q55.40 5.88 54.73 6.60L54.73 6.60L54.73 6.60Q54.05 7.32 54.05 8.51L54.05 8.51L54.05 8.51Q54.05 9.27 54.37 9.86L54.37 9.86L54.37 9.86Q54.68 10.46 55.25 10.79L55.25 10.79L55.25 10.79Q55.82 11.13 56.55 11.13L56.55 11.13L56.55 11.13Q57.50 11.13 58.09 10.64L58.09 10.64L58.09 10.64Q58.35 10.44 58.60 10.44L58.60 10.44L58.60 10.44Q58.80 10.44 58.97 10.57L58.97 10.57L58.97 10.57Q59.23 10.79 59.23 11.07L59.23 11.07L59.23 11.07Q59.23 11.28 59.07 11.45L59.07 11.45L59.07 11.45Q58.06 12.39 56.55 12.39L56.55 12.39L56.55 12.39Q55.44 12.39 54.56 11.89L54.56 11.89L54.56 11.89Q53.68 11.38 53.18 10.49L53.18 10.49L53.18 10.49Q52.68 9.60 52.68 8.51L52.68 8.51L52.68 8.51Q52.68 7.39 53.16 6.50L53.16 6.50L53.16 6.50Q53.65 5.61 54.52 5.12L54.52 5.12L54.52 5.12Q55.38 4.62 56.48 4.62L56.48 4.62ZM61.89 10.61L61.89 10.61Q62.29 10.61 62.57 10.90L62.57 10.90L62.57 10.90Q62.86 11.19 62.86 11.59L62.86 11.59L62.86 11.59Q62.86 11.98 62.58 12.27L62.58 12.27L62.58 12.27Q62.30 12.56 61.89 12.56L61.89 12.56L61.89 12.56Q61.50 12.56 61.22 12.27L61.22 12.27L61.22 12.27Q60.93 11.98 60.93 11.59L60.93 11.59L60.93 11.59Q60.93 11.19 61.22 10.90L61.22 10.90L61.22 10.90Q61.50 10.61 61.89 10.61L61.89 10.61ZM70.63 11.26L70.63 11.26Q70.83 11.47 70.83 11.75L70.83 11.75L70.83 11.75Q70.83 12.00 70.65 12.17L70.65 12.17L70.65 12.17Q70.48 12.33 70.20 12.33L70.20 12.33L70.20 12.33Q69.86 12.33 69.69 12.11L69.69 12.11L67.47 9.45L65.35 12.11L65.35 12.11Q65.14 12.33 64.85 12.33L64.85 12.33L64.85 12.33Q64.57 12.33 64.41 12.17L64.41 12.17L64.41 12.17Q64.25 12.00 64.25 11.75L64.25 11.75L64.25 11.75Q64.25 11.47 64.44 11.23L64.44 11.23L66.61 8.51L64.30 5.78L64.30 5.78Q64.09 5.53 64.09 5.25L64.09 5.25L64.09 5.25Q64.09 5.01 64.25 4.84L64.25 4.84L64.25 4.84Q64.41 4.68 64.71 4.68L64.71 4.68L64.71 4.68Q65.04 4.68 65.24 4.91L65.24 4.91L67.54 7.66L69.59 4.91L69.59 4.91Q69.78 4.68 70.11 4.68L70.11 4.68L70.11 4.68Q70.39 4.68 70.55 4.85L70.55 4.85L70.55 4.85Q70.71 5.03 70.71 5.28L70.71 5.28L70.71 5.28Q70.71 5.59 70.52 5.84L70.52 5.84L68.40 8.60L70.63 11.26ZM78.47 4.75L78.47 4.75Q78.90 4.91 78.90 5.29L78.90 5.29L78.90 5.29Q78.90 5.43 78.82 5.63L78.82 5.63L74.54 15.26L74.54 15.26Q74.37 15.69 73.99 15.69L73.99 15.69L73.99 15.69Q73.85 15.69 73.65 15.61L73.65 15.61L73.65 15.61Q73.23 15.43 73.23 15.06L73.23 15.06L73.23 15.06Q73.23 14.90 73.32 14.73L73.32 14.73L74.72 11.58L71.57 5.60L71.57 5.60Q71.50 5.47 71.50 5.31L71.50 5.31L71.50 5.31Q71.50 5.12 71.61 4.97L71.61 4.97L71.61 4.97Q71.72 4.82 71.90 4.73L71.90 4.73L71.90 4.73Q72.03 4.68 72.18 4.68L72.18 4.68L72.18 4.68Q72.58 4.68 72.77 5.07L72.77 5.07L75.33 10.16L77.59 5.08L77.59 5.08Q77.77 4.68 78.13 4.68L78.13 4.68L78.13 4.68Q78.32 4.68 78.47 4.75L78.47 4.75ZM85.25 11.02L85.25 11.02Q85.90 11.02 85.90 11.68L85.90 11.68L85.90 11.68Q85.90 12.33 85.25 12.33L85.25 12.33L80.47 12.33L80.47 12.33Q79.81 12.33 79.81 11.68L79.81 11.68L79.81 11.68Q79.81 11.40 79.94 11.23L79.94 11.23L83.90 5.99L80.33 5.99L80.33 5.99Q79.67 5.99 79.67 5.33L79.67 5.33L79.67 5.33Q79.67 4.68 80.33 4.68L80.33 4.68L85.11 4.68L85.11 4.68Q85.76 4.68 85.76 5.33L85.76 5.33L85.76 5.33Q85.76 5.61 85.64 5.78L85.64 5.78L81.69 11.02L85.25 11.02Z"></path></g><defs data-v-423bf9ae=""><linearGradient data-v-423bf9ae="" gradientTransform="rotate(25)" id="dbfa18ff-4d2a-43d0-b875-933a5367568a" x1="0%" y1="0%" x2="100%" y2="0%"><stop data-v-423bf9ae="" offset="0%" style="stop-color: rgb(132, 63, 71); stop-opacity: 1;"></stop><stop data-v-423bf9ae="" offset="100%" style="stop-color: rgb(208, 151, 139); stop-opacity: 1;"></stop></linearGradient></defs><g data-v-423bf9ae="" id="fe959214-541e-4543-95b7-cce722da250a" transform="matrix(1.346378382672281,0,0,1.346378382672281,0.6817143467024493,0)" stroke="none" fill="url(#dbfa18ff-4d2a-43d0-b875-933a5367568a)"><path d="M83.175 25.884c.597 2.327.511 4.935.331 7.584 8.77 5.6 10.276 8.98 10.213 9.534-.013.02-1.678 2.005-11.28 1.303a75.363 75.363 0 0 1-3.88-.392 33.254 33.254 0 0 0 1.695-10.489C80.254 14.993 65.26 0 46.829 0 32.708 0 20.612 8.807 15.724 21.213c-8.06-5.29-9.491-8.485-9.431-9.023.013-.021 1.417-2.143 11.008-1.444 1.285-2.369 3.343-4.278 5.468-5.786-1.348-.16-3.309-.243-4.732-.347C7.714 3.858 1.936 5.644.372 10.075c-1.67 4.73 2.283 10.134 12.085 16.525.473.308.985.616 1.479.925a33.432 33.432 0 0 0-.532 5.898c0 18.43 14.994 33.423 33.425 33.423 12.443 0 23.313-6.84 29.066-16.952 2.139.312 4.178.544 6.083.685 10.321.753 16.098-1.031 17.662-5.464 2.174-6.149-5.789-13.115-16.465-19.231zM46.829 60.377c-14.864 0-26.956-12.089-26.956-26.954 0-.809.042-1.608.113-2.399 6.032 3.25 13.04 6.419 20.591 9.274.203-2.183.975-4.2 2.167-5.905-7.947-3.009-15.278-6.372-21.383-9.786 3.662-10.545 13.691-18.14 25.467-18.14 14.862 0 26.956 12.092 26.956 26.955 0 3.325-.609 6.508-1.714 9.45-2.212-.42-4.51-.918-6.875-1.49l.002.059c0 2.189-.579 4.243-1.585 6.029 1.847.447 3.655.849 5.421 1.21-4.864 7.06-13.002 11.697-22.204 11.697z"></path><circle cx="52.67" cy="41.599" r="8.356"></circle></g><!----></svg>